<svg width="30" height="30" viewBox="0 0 30 30" fill="none" xmlns="http://www.w3.org/2000/svg">
<rect width="30" height="30" rx="5" fill="#DA0C81"/>
<g clip-path="url(#clip0_114_973)">
<path d="M10.027 6.30313L10.027 6.30311C9.90243 6.14307 9.74527 6.01133 9.56594 5.91662C9.3866 5.82191 9.18919 5.7664 8.98678 5.75376C8.78436 5.74112 8.58158 5.77164 8.39185 5.8433C8.20224 5.91491 8.03001 6.02598 7.88655 6.16915C7.88646 6.16924 7.88637 6.16933 7.88628 6.16942L6.59418 7.46152C5.84854 8.20716 5.54685 9.29478 5.89267 10.2788C7.01607 13.4705 8.84357 16.3684 11.2397 18.7576L11.2412 18.7591C13.6308 21.1554 16.5292 22.983 19.7215 24.1062L19.7217 24.1063C20.7067 24.4531 21.7929 24.1515 22.5385 23.4059L23.831 22.1134L23.8314 22.113C24.4391 21.5061 24.3777 20.5015 23.6971 19.9719C23.6971 19.9719 23.6971 19.9719 23.697 19.9719L20.8149 17.7297L10.027 6.30313ZM10.027 6.30313L12.2706 9.1854C12.5401 9.53196 12.6354 9.98378 12.5287 10.4105L12.5287 10.4107M10.027 6.30313L12.5287 10.4107M12.5287 10.4107L11.845 13.1482L11.8449 13.1485M12.5287 10.4107L11.8449 13.1485M11.8449 13.1485C11.7782 13.4158 11.7818 13.6957 11.8553 13.9612C11.9288 14.2266 12.0697 14.4686 12.2643 14.6635L12.2648 14.664M11.8449 13.1485L12.2648 14.664M12.2648 14.664L15.336 17.7353L15.3363 17.7355M12.2648 14.664L15.3363 17.7355M15.3363 17.7355C15.5315 17.9305 15.7738 18.0716 16.0397 18.1451C16.3055 18.2186 16.5857 18.222 16.8532 18.1551C16.8533 18.155 16.8535 18.155 16.8537 18.1549L19.5894 17.4713L19.5895 17.4713M15.3363 17.7355L19.5895 17.4713M19.5895 17.4713C19.8 17.4187 20.0197 17.4146 20.232 17.4593M19.5895 17.4713L20.232 17.4593M19.4726 24.8137C20.7614 25.2674 22.1439 24.8612 23.0689 23.9362L24.3614 22.6437C25.2889 21.7174 25.1939 20.1862 24.1576 19.3799L19.4726 24.8137ZM19.4726 24.8137C16.1741 23.6531 13.1792 21.7647 10.7101 19.2887L19.4726 24.8137ZM20.232 17.4593C20.4441 17.5041 20.6433 17.5964 20.8146 17.7294L20.232 17.4593Z" stroke="white" stroke-width="1.5"/>
</g>
<defs>
<clipPath id="clip0_114_973">
<rect width="20" height="20" fill="white" transform="translate(5 5)"/>
</clipPath>
</defs>
</svg>
