<svg width="235" height="96" viewBox="0 0 235 96" fill="none" xmlns="http://www.w3.org/2000/svg">
<g clip-path="url(#clip0_114_860)">
<path fill-rule="evenodd" clip-rule="evenodd" d="M59.9121 24.2069C60.7873 22.4542 62.1335 20.9799 63.7996 19.9493C65.4657 18.9187 67.3859 18.3725 69.345 18.3721H72.9091C73.2315 18.3721 73.5407 18.5001 73.7687 18.7281C73.9966 18.9561 74.1247 19.2653 74.1247 19.5877V30.382L87.2919 34.7679C87.533 34.8493 87.7424 35.0043 87.8907 35.211C88.039 35.4178 88.1187 35.6658 88.1185 35.9202V40.5881C88.1172 43.3835 87.0062 46.064 85.0295 48.0407C83.0529 50.0173 80.3724 51.1283 77.577 51.1296H69.4569V51.1394C64.4778 50.0842 60.7825 47.2787 58.1082 43.9723C56.2843 41.6971 54.8334 39.1466 53.8099 36.4162L59.9121 24.2069ZM47.5909 37.0386H39.8015C35.8385 37.0382 31.9938 35.6886 28.9001 33.2119L22.3506 27.9703C22.1715 27.8273 21.9557 27.7379 21.7279 27.7122C21.5002 27.6866 21.2699 27.7259 21.0636 27.8255C20.8572 27.9251 20.6832 28.0811 20.5616 28.2753C20.44 28.4695 20.3759 28.6942 20.3764 28.9233V68.5757C20.3385 69.678 20.5229 70.7766 20.9185 71.8061C21.3141 72.8356 21.913 73.7749 22.6793 74.5681C23.4456 75.3613 24.3638 75.992 25.3791 76.4229C26.3944 76.8537 27.486 77.0757 28.5889 77.0757C29.6918 77.0757 30.7835 76.8537 31.7988 76.4229C32.814 75.992 33.7322 75.3613 34.4986 74.5681C35.2649 73.7749 35.8637 72.8356 36.2594 71.8061C36.655 70.7766 36.8394 69.678 36.8014 68.5757V66.2418C36.8027 65.327 37.167 64.4502 37.8143 63.8038C38.4616 63.1574 39.3389 62.7944 40.2537 62.7944H49.5845C50.0379 62.7944 50.4868 62.8837 50.9056 63.0572C51.3245 63.2307 51.705 63.485 52.0256 63.8055C52.3462 64.1261 52.6005 64.5067 52.774 64.9255C52.9475 65.3444 53.0368 65.7933 53.0368 66.2466V68.5806C52.9988 69.6828 53.1832 70.7814 53.5788 71.8109C53.9744 72.8404 54.5733 73.7798 55.3396 74.5729C56.106 75.3661 57.0241 75.9969 58.0394 76.4277C59.0547 76.8585 60.1463 77.0806 61.2492 77.0806C62.3522 77.0806 63.4438 76.8585 64.4591 76.4277C65.4744 75.9969 66.3925 75.3661 67.1589 74.5729C67.9252 73.7798 68.5241 72.8404 68.9197 71.8109C69.3153 70.7814 69.4997 69.6828 69.4617 68.5806V57.3145C62.2169 56.1524 56.9655 52.2091 53.382 47.7941C50.8121 44.5909 48.851 40.9438 47.5958 37.0337L47.5909 37.0386Z" fill="url(#paint0_linear_114_860)"/>
</g>
<path d="M99.2592 56.0449C98.5104 56.0449 97.9233 55.8407 97.4979 55.4323C97.0894 55.0068 96.8852 54.4197 96.8852 53.6709V40.3967C96.8852 39.6309 97.0894 39.0438 97.4979 38.6353C97.9063 38.2269 98.4849 38.0227 99.2337 38.0227C99.9995 38.0227 100.578 38.2269 100.97 38.6353C101.378 39.0438 101.582 39.6309 101.582 40.3967V52.1392H107.811C108.458 52.1392 108.951 52.3094 109.291 52.6498C109.649 52.9731 109.828 53.4496 109.828 54.0793C109.828 54.709 109.649 55.194 109.291 55.5344C108.951 55.8747 108.458 56.0449 107.811 56.0449H99.2592ZM115.959 56.3257C114.87 56.3257 113.976 56.13 113.279 55.7386C112.581 55.3302 112.053 54.726 111.696 53.9262C111.356 53.1263 111.185 52.1137 111.185 50.8884V45.5277C111.185 44.7789 111.381 44.2173 111.773 43.8429C112.164 43.4515 112.726 43.2558 113.457 43.2558C114.189 43.2558 114.751 43.4515 115.142 43.8429C115.534 44.2173 115.729 44.7789 115.729 45.5277V51.016C115.729 51.6287 115.857 52.0882 116.112 52.3945C116.368 52.7008 116.767 52.854 117.312 52.854C117.925 52.854 118.427 52.6328 118.818 52.1903C119.21 51.7478 119.405 51.1607 119.405 50.4289V45.5277C119.405 44.7789 119.601 44.2173 119.992 43.8429C120.384 43.4515 120.945 43.2558 121.677 43.2558C122.409 43.2558 122.971 43.4515 123.362 43.8429C123.753 44.2173 123.949 44.7789 123.949 45.5277V53.9772C123.949 55.5088 123.217 56.2747 121.754 56.2747C121.039 56.2747 120.486 56.079 120.094 55.6875C119.703 55.2961 119.507 54.726 119.507 53.9772V52.4966L119.916 53.7475C119.541 54.5814 119.014 55.2195 118.333 55.662C117.669 56.1045 116.878 56.3257 115.959 56.3257ZM133.001 56.3257C131.588 56.3257 130.354 56.0619 129.299 55.5344C128.261 55.0068 127.453 54.2495 126.874 53.2624C126.296 52.2584 126.006 51.0841 126.006 49.7397C126.006 48.7186 126.168 47.8081 126.491 47.0083C126.815 46.1914 127.283 45.5022 127.895 44.9406C128.525 44.379 129.265 43.9535 130.116 43.6642C130.984 43.3579 131.946 43.2047 133.001 43.2047C133.494 43.2047 134.013 43.2558 134.558 43.3579C135.102 43.443 135.664 43.6131 136.243 43.8684C136.651 44.0216 136.932 44.2598 137.085 44.5832C137.255 44.8895 137.323 45.2214 137.289 45.5787C137.272 45.9361 137.17 46.2595 136.983 46.5488C136.813 46.8381 136.566 47.0338 136.243 47.1359C135.936 47.238 135.587 47.1955 135.196 47.0083C134.924 46.8721 134.634 46.7785 134.328 46.7275C134.039 46.6594 133.758 46.6254 133.486 46.6254C133.026 46.6254 132.618 46.6934 132.26 46.8296C131.92 46.9657 131.631 47.1699 131.393 47.4422C131.154 47.6975 130.967 48.0208 130.831 48.4123C130.712 48.8037 130.652 49.2462 130.652 49.7397C130.652 50.7267 130.899 51.5011 131.393 52.0627C131.886 52.6243 132.584 52.9051 133.486 52.9051C133.758 52.9051 134.039 52.8795 134.328 52.8285C134.617 52.7604 134.907 52.6583 135.196 52.5222C135.587 52.335 135.936 52.3009 136.243 52.42C136.549 52.5222 136.796 52.7179 136.983 53.0072C137.17 53.2965 137.272 53.6198 137.289 53.9772C137.306 54.3176 137.23 54.6494 137.06 54.9728C136.889 55.2791 136.6 55.5088 136.192 55.662C135.63 55.9173 135.077 56.0875 134.532 56.1726C134.005 56.2747 133.494 56.3257 133.001 56.3257ZM142.933 60.8696C142.405 60.8696 141.98 60.7334 141.656 60.4611C141.333 60.1888 141.129 59.8315 141.044 59.389C140.976 58.9465 141.052 58.4785 141.273 57.985L142.984 54.2835V56.1215L138.619 46.1403C138.397 45.6298 138.321 45.1533 138.389 44.7108C138.474 44.2683 138.704 43.9195 139.078 43.6642C139.452 43.3919 139.963 43.2558 140.61 43.2558C141.154 43.2558 141.588 43.3834 141.912 43.6387C142.252 43.8769 142.558 44.3534 142.831 45.0682L145.383 51.7053H144.515L147.221 45.0427C147.494 44.3449 147.8 43.8769 148.14 43.6387C148.498 43.3834 148.974 43.2558 149.57 43.2558C150.08 43.2558 150.489 43.3919 150.795 43.6642C151.101 43.9195 151.289 44.2683 151.357 44.7108C151.425 45.1533 151.348 45.6298 151.127 46.1403L145.332 59.1592C145.026 59.84 144.686 60.291 144.311 60.5122C143.954 60.7505 143.494 60.8696 142.933 60.8696ZM163.052 56.2747C162.303 56.2747 161.724 56.0704 161.316 55.662C160.908 55.2366 160.703 54.6494 160.703 53.9006V40.4222C160.703 39.6564 160.908 39.0693 161.316 38.6608C161.742 38.2524 162.329 38.0482 163.077 38.0482H169.357C171.399 38.0482 172.974 38.5758 174.08 39.6309C175.203 40.669 175.764 42.107 175.764 43.945C175.764 45.783 175.203 47.2295 174.08 48.2846C172.974 49.3227 171.399 49.8418 169.357 49.8418H165.4V53.9006C165.4 54.6494 165.205 55.2366 164.813 55.662C164.422 56.0704 163.835 56.2747 163.052 56.2747ZM165.4 46.2424H168.54C169.425 46.2424 170.106 46.0552 170.582 45.6808C171.059 45.2894 171.297 44.7108 171.297 43.945C171.297 43.1622 171.059 42.5835 170.582 42.2091C170.106 41.8347 169.425 41.6475 168.54 41.6475H165.4V46.2424ZM183.791 56.3257C182.26 56.3257 180.932 56.0619 179.809 55.5344C178.703 54.9898 177.852 54.224 177.256 53.2369C176.661 52.2499 176.363 51.0841 176.363 49.7397C176.363 48.4463 176.644 47.3146 177.205 46.3446C177.784 45.3575 178.567 44.5917 179.554 44.0471C180.558 43.4855 181.698 43.2047 182.974 43.2047C183.91 43.2047 184.761 43.3579 185.527 43.6642C186.293 43.9535 186.948 44.3875 187.493 44.9661C188.037 45.5277 188.446 46.2084 188.718 47.0083C189.007 47.8081 189.152 48.7016 189.152 49.6886C189.152 50.029 189.058 50.2843 188.871 50.4544C188.684 50.6076 188.386 50.6842 187.978 50.6842H180.166V48.5399H185.833L185.425 48.8718C185.425 48.2421 185.34 47.7315 185.17 47.3401C185 46.9487 184.744 46.6509 184.404 46.4467C184.081 46.2424 183.672 46.1403 183.179 46.1403C182.651 46.1403 182.192 46.268 181.8 46.5232C181.426 46.7615 181.136 47.1189 180.932 47.5954C180.728 48.0719 180.626 48.6675 180.626 49.3823V49.612C180.626 50.8203 180.89 51.6883 181.417 52.2158C181.962 52.7264 182.796 52.9816 183.919 52.9816C184.293 52.9816 184.719 52.9391 185.195 52.854C185.689 52.7519 186.157 52.6158 186.599 52.4456C187.042 52.2754 187.425 52.2499 187.748 52.369C188.071 52.4711 188.318 52.6583 188.488 52.9306C188.675 53.1859 188.778 53.4837 188.795 53.824C188.812 54.1474 188.735 54.4707 188.565 54.7941C188.395 55.1004 188.114 55.3387 187.722 55.5088C187.127 55.7811 186.489 55.9854 185.808 56.1215C185.144 56.2576 184.472 56.3257 183.791 56.3257ZM197.596 56.3257C196.32 56.3257 195.264 56.13 194.431 55.7386C193.614 55.3472 193.001 54.76 192.593 53.9772C192.184 53.1774 191.98 52.1818 191.98 50.9905V46.8296H191.112C190.567 46.8296 190.142 46.6849 189.836 46.3956C189.546 46.1063 189.402 45.6894 189.402 45.1448C189.402 44.6002 189.546 44.1918 189.836 43.9195C190.142 43.6302 190.567 43.4855 191.112 43.4855H191.98V41.9028C191.98 41.154 192.176 40.5839 192.567 40.1925C192.958 39.8011 193.52 39.6054 194.252 39.6054C194.984 39.6054 195.545 39.8011 195.937 40.1925C196.328 40.5839 196.524 41.154 196.524 41.9028V43.4855H198.617C199.179 43.4855 199.604 43.6302 199.893 43.9195C200.2 44.1918 200.353 44.6002 200.353 45.1448C200.353 45.6894 200.2 46.1063 199.893 46.3956C199.604 46.6849 199.179 46.8296 198.617 46.8296H196.524V50.8374C196.524 51.467 196.668 51.935 196.958 52.2414C197.264 52.5307 197.741 52.6753 198.387 52.6753C198.626 52.6753 198.855 52.6498 199.076 52.5987C199.298 52.5477 199.502 52.5222 199.689 52.5222C199.961 52.5051 200.183 52.5902 200.353 52.7774C200.523 52.9476 200.608 53.3475 200.608 53.9772C200.608 54.4878 200.532 54.9217 200.378 55.2791C200.225 55.6195 199.953 55.8662 199.562 56.0194C199.323 56.1045 199 56.1726 198.591 56.2236C198.183 56.2917 197.851 56.3257 197.596 56.3257ZM206.882 56.3257C206.133 56.3257 205.368 56.2662 204.585 56.147C203.819 56.0449 203.121 55.8492 202.492 55.5599C202.066 55.3897 201.76 55.16 201.573 54.8707C201.402 54.5814 201.317 54.275 201.317 53.9517C201.334 53.6283 201.428 53.339 201.598 53.0838C201.785 52.8115 202.024 52.6243 202.313 52.5222C202.619 52.403 202.96 52.4115 203.334 52.5477C204.049 52.803 204.687 52.9902 205.249 53.1093C205.827 53.2114 206.38 53.2624 206.908 53.2624C207.537 53.2624 207.988 53.1774 208.261 53.0072C208.533 52.82 208.669 52.5817 208.669 52.2924C208.669 52.0371 208.576 51.8414 208.388 51.7053C208.218 51.5691 207.971 51.4755 207.648 51.4245L204.815 50.965C203.759 50.7778 202.943 50.3949 202.364 49.8163C201.785 49.2206 201.496 48.4463 201.496 47.4933C201.496 46.6083 201.743 45.851 202.236 45.2214C202.747 44.5747 203.436 44.0811 204.304 43.7408C205.189 43.3834 206.202 43.2047 207.342 43.2047C208.108 43.2047 208.805 43.2643 209.435 43.3834C210.065 43.4855 210.677 43.6812 211.273 43.9705C211.647 44.1237 211.911 44.3449 212.064 44.6342C212.217 44.9235 212.277 45.2299 212.243 45.5532C212.209 45.8595 212.098 46.1488 211.911 46.4211C211.741 46.6764 211.503 46.8551 211.196 46.9572C210.89 47.0423 210.533 47.0168 210.124 46.8806C209.563 46.6594 209.061 46.4977 208.618 46.3956C208.193 46.2935 207.793 46.2424 207.418 46.2424C206.721 46.2424 206.227 46.336 205.938 46.5232C205.648 46.7104 205.504 46.9487 205.504 47.238C205.504 47.4592 205.58 47.6464 205.734 47.7996C205.887 47.9358 206.125 48.0294 206.448 48.0804L209.282 48.5654C210.371 48.7356 211.205 49.11 211.783 49.6886C212.379 50.2502 212.677 51.016 212.677 51.9861C212.677 53.3646 212.149 54.4367 211.094 55.2025C210.039 55.9513 208.635 56.3257 206.882 56.3257Z" fill="white"/>
<defs>
<linearGradient id="paint0_linear_114_860" x1="30.0963" y1="30.5279" x2="54.2451" y2="77.0806" gradientUnits="userSpaceOnUse">
<stop stop-color="#FC1515"/>
<stop offset="0.546585" stop-color="#FF005C"/>
</linearGradient>
<clipPath id="clip0_114_860">
<rect width="68.0727" height="68.0727" fill="white" transform="translate(20.3716 13.5088)"/>
</clipPath>
</defs>
</svg>
