<svg width="30" height="30" viewBox="0 0 30 30" fill="none" xmlns="http://www.w3.org/2000/svg">
<path d="M12.4998 25C11.8368 25 11.2009 24.7366 10.732 24.2678C10.2632 23.7989 9.99981 23.163 9.99981 22.5C9.99981 21.837 10.2632 21.2011 10.732 20.7322C11.2009 20.2634 11.8368 20 12.4998 20C13.1629 20 13.7987 20.2634 14.2676 20.7322C14.7364 21.2011 14.9998 21.837 14.9998 22.5C14.9998 23.163 14.7364 23.7989 14.2676 24.2678C13.7987 24.7366 13.1629 25 12.4998 25ZM21.2498 25C20.5868 25 19.9509 24.7366 19.482 24.2678C19.0132 23.7989 18.7498 23.163 18.7498 22.5C18.7498 21.837 19.0132 21.2011 19.482 20.7322C19.9509 20.2634 20.5868 20 21.2498 20C21.9128 20 22.5487 20.2634 23.0176 20.7322C23.4864 21.2011 23.7498 21.837 23.7498 22.5C23.7498 23.163 23.4864 23.7989 23.0176 24.2678C22.5487 24.7366 21.9128 25 21.2498 25ZM4.95231 7.40375C4.64026 7.39369 4.34436 7.26265 4.12718 7.03835C3.91 6.81406 3.78857 6.51409 3.78857 6.20187C3.78857 5.88966 3.91 5.58969 4.12718 5.3654C4.34436 5.1411 4.64026 5.01006 4.95231 5H6.39106C7.51856 5 8.49356 5.7825 8.73856 6.8825L10.3048 13.935C10.5498 15.035 11.5248 15.8175 12.6523 15.8175H22.0423L23.8448 8.605H12.1636C11.8544 8.59089 11.5627 8.45817 11.3489 8.23444C11.1352 8.01071 11.0159 7.71318 11.0159 7.40375C11.0159 7.09432 11.1352 6.79679 11.3489 6.57306C11.5627 6.34933 11.8544 6.21661 12.1636 6.2025H23.8448C24.2102 6.20239 24.5709 6.2856 24.8993 6.44579C25.2277 6.60599 25.5153 6.83895 25.7402 7.12698C25.9651 7.41501 26.1213 7.75051 26.1971 8.108C26.2728 8.46548 26.2661 8.83552 26.1773 9.19L24.3748 16.4C24.2449 16.9202 23.9447 17.3821 23.522 17.7121C23.0994 18.0421 22.5785 18.2213 22.0423 18.2212H12.6523C11.5583 18.2214 10.497 17.8484 9.64358 17.1639C8.79019 16.4793 8.19579 15.5242 7.95856 14.4563L6.39106 7.40375H4.95231Z" fill="white"/>
</svg>
