<svg width="31" height="30" viewBox="0 0 31 30" fill="none" xmlns="http://www.w3.org/2000/svg">
<path d="M27.6628 20.1254C27.317 18.7938 26.1172 17.8634 24.7435 17.8634C24.4665 17.8634 24.1895 17.9016 23.922 17.978L21.6753 10.2386C22.4548 10.0056 23.0948 9.48401 23.4769 8.76375C23.8628 8.03777 23.9373 7.20671 23.6851 6.42341C23.2897 5.19306 22.1013 4.33334 20.7946 4.33334C20.5481 4.33334 20.3017 4.36391 20.0629 4.42505C19.1057 4.6715 18.3415 5.365 17.9957 6.27439C17.4761 5.88466 16.8475 5.67259 16.1903 5.67259C15.8751 5.67259 15.5618 5.72226 15.2599 5.8197C13.7697 6.30305 12.8775 7.92887 13.2711 9.4458C13.6169 10.7774 14.8167 11.7078 16.1903 11.7078C16.4673 11.7078 16.7424 11.6696 17.0118 11.5932L18.7943 17.7335C18.0377 17.6704 17.2602 17.9436 16.7061 18.5435C16.603 18.6543 16.5151 18.7728 16.4368 18.895L9.77872 12.7395C9.89526 12.6516 10.0061 12.5542 10.1092 12.4433C11.0836 11.3888 11.0014 9.73428 9.91246 8.78477C8.91136 7.90977 7.34668 7.9709 6.41436 8.9185C5.7285 9.61583 5.52981 10.5997 5.79728 11.4652C5.84886 11.6333 5.69984 11.7938 5.5279 11.7556C4.64334 11.5569 3.68046 11.832 3.03854 12.5713C2.16736 13.5744 2.2304 15.139 3.17991 16.0694C4.21157 17.0801 5.86796 17.0323 6.84231 15.9797C6.94548 15.8688 7.03336 15.7504 7.11169 15.6281L13.7697 21.7837C13.6532 21.8716 13.5424 21.969 13.4392 22.0798C12.4649 23.1344 12.547 24.7889 13.636 25.7384C14.6371 26.6134 16.2018 26.5523 17.1341 25.6047C17.5296 25.2016 17.7626 24.7048 17.8391 24.189C18.4065 24.8386 19.2452 25.2436 20.1412 25.2436C20.3876 25.2436 20.6341 25.213 20.8729 25.1519C21.8281 24.9054 22.5942 24.2119 22.94 23.3025C23.4597 23.6923 24.0882 23.9043 24.7455 23.9043C25.0607 23.9043 25.374 23.8547 25.6759 23.7572C27.166 23.2739 28.0582 21.6481 27.6647 20.1311L27.6628 20.1254ZM24.7435 22.972C24.2048 22.972 23.6909 22.7657 23.2992 22.3893C23.1693 22.2651 22.9993 22.1964 22.8216 22.1964C22.5025 22.1964 22.2255 22.4122 22.1491 22.7237C21.9638 23.4726 21.3868 24.0572 20.6417 24.2482C20.4793 24.2903 20.3093 24.3113 20.1412 24.3113C19.2337 24.3113 18.4084 23.7171 18.1333 22.865C17.9594 22.3225 18.0091 21.7455 18.2766 21.243C18.544 20.7406 18.993 20.3757 19.5394 20.2171C19.6483 20.1846 19.7648 20.1636 19.8966 20.1483C20.0323 20.133 20.1546 20.0585 20.231 19.9458C20.3074 19.8312 20.3284 19.6898 20.2902 19.558L17.7626 10.85C17.7244 10.7182 17.6308 10.6112 17.5047 10.5558C17.4455 10.529 17.3805 10.5157 17.3175 10.5157C17.2468 10.5157 17.178 10.531 17.1131 10.5634C16.9946 10.6207 16.8838 10.6647 16.7749 10.6972C16.5839 10.7526 16.3871 10.7812 16.1903 10.7812C15.2389 10.7812 14.4078 10.1374 14.169 9.21463C13.8958 8.16386 14.5148 7.03859 15.5465 6.70234C15.7566 6.63357 15.9744 6.59918 16.1922 6.59918C16.731 6.59918 17.2449 6.80551 17.6365 7.18187C17.7665 7.30605 17.9365 7.37483 18.1142 7.37483C18.4332 7.37483 18.7102 7.15895 18.7867 6.84754C18.972 6.09863 19.5489 5.51402 20.294 5.32297C20.4564 5.28094 20.6265 5.25993 20.7946 5.25993C21.7021 5.25993 22.5274 5.85409 22.8025 6.70616C22.9763 7.24874 22.9267 7.82571 22.6592 8.32816C22.3917 8.83062 21.9428 9.19552 21.3964 9.35409C21.2875 9.38657 21.1709 9.40759 21.0391 9.42287C20.9035 9.43816 20.7812 9.51266 20.7048 9.62538C20.6284 9.74001 20.6073 9.88139 20.6456 10.0132L23.1731 18.7212C23.2113 18.853 23.3049 18.96 23.431 19.0154C23.5552 19.0708 23.6985 19.0689 23.8227 19.0078C23.943 18.9485 24.0539 18.9065 24.1608 18.874C24.3519 18.8186 24.5487 18.79 24.7455 18.79C25.6969 18.79 26.5279 19.4338 26.7687 20.3566C27.0419 21.4073 26.4229 22.5326 25.3912 22.8669C25.181 22.9357 24.9632 22.9701 24.7455 22.9701L24.7435 22.972Z" fill="#DA0C81"/>
</svg>
