<svg width="30" height="30" viewBox="0 0 30 30" fill="none" xmlns="http://www.w3.org/2000/svg">
<g clip-path="url(#clip0_114_739)">
<path d="M23.4746 13.0707L7.6249 6.49405C6.95718 6.21695 6.20282 6.33885 5.65627 6.81201C5.10971 7.28524 4.88111 8.01439 5.05976 8.71488L6.47052 14.2473H13.3778C13.6956 14.2473 13.9534 14.5049 13.9534 14.8228C13.9534 15.1407 13.6957 15.3984 13.3778 15.3984H6.47052L5.05976 20.9307C4.88111 21.6313 5.10967 22.3604 5.65627 22.8336C6.20393 23.3077 6.95837 23.4281 7.62494 23.1516L23.4746 16.5749C24.1962 16.2755 24.6445 15.6041 24.6445 14.8228C24.6445 14.0415 24.1962 13.3701 23.4746 13.0707Z" fill="#FFA33C"/>
</g>
<defs>
<clipPath id="clip0_114_739">
<rect width="19.6445" height="19.6445" fill="white" transform="translate(5 5)"/>
</clipPath>
</defs>
</svg>
