<svg width="32" height="33" viewBox="0 0 32 33" fill="none" xmlns="http://www.w3.org/2000/svg">
<path d="M27 0.212402H5C2.23858 0.212402 0 2.45098 0 5.2124V27.2124C0 29.9738 2.23858 32.2124 5 32.2124H27C29.7614 32.2124 32 29.9738 32 27.2124V5.2124C32 2.45098 29.7614 0.212402 27 0.212402Z" fill="#1877F2"/>
<path d="M24 16.2124C24 11.8124 20.4 8.2124 16 8.2124C11.6 8.2124 8 11.8124 8 16.2124C8 20.2124 10.9 23.5124 14.7 24.1124V18.5124H12.7V16.2124H14.7V14.4124C14.7 12.4124 15.9 11.3124 17.7 11.3124C18.6 11.3124 19.5 11.5124 19.5 11.5124V13.5124H18.5C17.5 13.5124 17.2 14.1124 17.2 14.7124V16.2124H19.4L19 18.5124H17.1V24.2124C21.1 23.6124 24 20.2124 24 16.2124Z" fill="white"/>
</svg>
