<svg width="32" height="33" viewBox="0 0 32 33" fill="none" xmlns="http://www.w3.org/2000/svg">
<path d="M27 0.212402H5C2.23858 0.212402 0 2.45098 0 5.2124V27.2124C0 29.9738 2.23858 32.2124 5 32.2124H27C29.7614 32.2124 32 29.9738 32 27.2124V5.2124C32 2.45098 29.7614 0.212402 27 0.212402Z" fill="#2867B2"/>
<path d="M11.6 24.2124H8.2V13.5124H11.6V24.2124ZM9.9 12.0124C8.8 12.0124 8 11.2124 8 10.1124C8 9.0124 8.9 8.2124 9.9 8.2124C11 8.2124 11.8 9.0124 11.8 10.1124C11.8 11.2124 11 12.0124 9.9 12.0124ZM24 24.2124H20.6V18.4124C20.6 16.7124 19.9 16.2124 18.9 16.2124C17.9 16.2124 16.9 17.0124 16.9 18.5124V24.2124H13.5V13.5124H16.7V15.0124C17 14.3124 18.2 13.2124 19.9 13.2124C21.8 13.2124 23.8 14.3124 23.8 17.6124V24.2124H24Z" fill="white"/>
</svg>
