<svg width="32" height="33" viewBox="0 0 32 33" fill="none" xmlns="http://www.w3.org/2000/svg">
<path d="M27 0.212402H5C2.23858 0.212402 0 2.45098 0 5.2124V27.2124C0 29.9738 2.23858 32.2124 5 32.2124H27C29.7614 32.2124 32 29.9738 32 27.2124V5.2124C32 2.45098 29.7614 0.212402 27 0.212402Z" fill="#1DA1F2"/>
<path d="M24 11.2124C23.4 11.5124 22.8 11.6124 22.1 11.7124C22.8 11.3124 23.3 10.7124 23.5 9.9124C22.9 10.3124 22.2 10.5124 21.4 10.7124C20.8 10.1124 19.9 9.7124 19 9.7124C16.9 9.7124 15.3 11.7124 15.8 13.7124C13.1 13.6124 10.7 12.3124 9 10.3124C8.1 11.8124 8.6 13.7124 10 14.7124C9.5 14.7124 9 14.5124 8.5 14.3124C8.5 15.8124 9.6 17.2124 11.1 17.6124C10.6 17.7124 10.1 17.8124 9.6 17.7124C10 19.0124 11.2 20.0124 12.7 20.0124C11.5 20.9124 9.7 21.4124 8 21.2124C9.5 22.1124 11.2 22.7124 13 22.7124C19.1 22.7124 22.5 17.6124 22.3 12.9124C23 12.5124 23.6 11.9124 24 11.2124Z" fill="white"/>
</svg>
