<svg width="61" height="52" viewBox="0 0 61 52" fill="none" xmlns="http://www.w3.org/2000/svg">
<path d="M59.8971 37.1836C59.0887 34.0706 56.2838 31.8955 53.0726 31.8955C52.425 31.8955 51.7774 31.9848 51.1521 32.1635L45.8997 14.0706C47.722 13.5257 49.2182 12.3064 50.1114 10.6226C51.0136 8.92543 51.1878 6.9826 50.5983 5.15143C49.6737 2.27514 46.8957 0.26532 43.8408 0.26532C43.2646 0.26532 42.6885 0.33678 42.1302 0.479701C39.8926 1.05585 38.1061 2.67711 37.2977 4.80306C36.0829 3.89194 34.6134 3.39618 33.077 3.39618C32.3401 3.39618 31.6076 3.5123 30.902 3.74008C27.4183 4.87005 25.3325 8.67086 26.2526 12.2171C27.061 15.3301 29.8658 17.5052 33.077 17.5052C33.7247 17.5052 34.3678 17.4158 34.9975 17.2372L39.1646 31.5918C37.3959 31.4444 35.5782 32.0831 34.2829 33.4855C34.0418 33.7446 33.8363 34.0215 33.6532 34.3073L18.0882 19.917C18.3607 19.7115 18.6197 19.4837 18.8609 19.2247C21.1387 16.7593 20.9466 12.8915 18.4009 10.6717C16.0605 8.62619 12.4026 8.76912 10.2231 10.9844C8.6197 12.6146 8.1552 14.9147 8.78048 16.9379C8.90107 17.331 8.5527 17.7061 8.15074 17.6168C6.08285 17.1523 3.83185 17.7955 2.33118 19.5239C0.294553 21.8687 0.441939 25.5266 2.66168 27.7017C5.07347 30.0643 8.94574 29.9527 11.2235 27.4918C11.4647 27.2327 11.6702 26.9558 11.8533 26.67L27.4183 41.0603C27.1458 41.2658 26.8868 41.4935 26.6456 41.7526C24.3678 44.218 24.5598 48.0858 27.1056 50.3055C29.446 52.3511 33.1038 52.2081 35.2834 49.9929C36.2079 49.0505 36.7528 47.8893 36.9314 46.6834C38.2579 48.2019 40.2186 49.1487 42.3133 49.1487C42.8895 49.1487 43.4656 49.0773 44.0239 48.9344C46.257 48.3582 48.048 46.737 48.8564 44.611C50.0712 45.5221 51.5406 46.0179 53.077 46.0179C53.814 46.0179 54.5465 45.9018 55.2521 45.674C58.7358 44.544 60.8216 40.7432 59.9015 37.197L59.8971 37.1836ZM53.0726 43.8383C51.8131 43.8383 50.6117 43.356 49.6961 42.4761C49.3924 42.1858 48.9949 42.025 48.5795 42.025C47.8336 42.025 47.186 42.5297 47.0074 43.2577C46.5741 45.0085 45.2253 46.3752 43.4835 46.8218C43.1038 46.9201 42.7063 46.9692 42.3133 46.9692C40.1918 46.9692 38.2624 45.5802 37.6193 43.5882C37.2128 42.3198 37.3289 40.971 37.9542 39.7964C38.5795 38.6217 39.6291 37.7687 40.9064 37.398C41.161 37.322 41.4335 37.2729 41.7416 37.2372C42.0587 37.2015 42.3446 37.0273 42.5232 36.7638C42.7019 36.4958 42.751 36.1653 42.6617 35.8571L36.7528 15.4998C36.6635 15.1916 36.4446 14.9415 36.1498 14.812C36.0114 14.7495 35.8595 14.7182 35.7122 14.7182C35.5469 14.7182 35.3861 14.7539 35.2343 14.8299C34.9574 14.9638 34.6983 15.0666 34.4437 15.1425C33.9971 15.272 33.5371 15.339 33.077 15.339C30.8528 15.339 28.91 13.8339 28.3517 11.6767C27.713 9.22021 29.1601 6.58957 31.5719 5.80351C32.0632 5.64272 32.5724 5.56233 33.0815 5.56233C34.341 5.56233 35.5424 6.04468 36.458 6.92454C36.7617 7.21485 37.1592 7.37564 37.5746 7.37564C38.3205 7.37564 38.9681 6.87095 39.1467 6.14294C39.5799 4.39216 40.9288 3.02548 42.6706 2.57885C43.0502 2.48059 43.4478 2.43146 43.8408 2.43146C45.9623 2.43146 47.8917 3.82048 48.5348 5.81244C48.9413 7.08086 48.8251 8.42968 48.1999 9.60431C47.5746 10.7789 46.525 11.632 45.2477 12.0027C44.9931 12.0786 44.7206 12.1278 44.4125 12.1635C44.0954 12.1992 43.8095 12.3734 43.6309 12.6369C43.4522 12.9049 43.4031 13.2354 43.4924 13.5436L49.4013 33.9009C49.4906 34.209 49.7095 34.4592 50.0042 34.5887C50.2946 34.7182 50.6295 34.7137 50.9198 34.5708C51.2012 34.4324 51.4603 34.3341 51.7104 34.2582C52.157 34.1287 52.617 34.0617 53.077 34.0617C55.3013 34.0617 57.2441 35.5668 57.8068 37.724C58.4455 40.1805 56.9984 42.8111 54.5867 43.5927C54.0954 43.7535 53.5862 43.8339 53.077 43.8339L53.0726 43.8383Z" fill="white"/>
</svg>
