<svg width="30" height="30" viewBox="0 0 30 30" fill="none" xmlns="http://www.w3.org/2000/svg">
<g clip-path="url(#clip0_114_348)">
<path d="M18.7671 3.60004C20.1732 3.60004 21.313 5.7391 21.313 7.55122C21.313 9.36335 20.1732 10.8328 18.7671 10.8328C17.361 10.8328 16.2212 9.36362 16.2212 7.55122C16.2212 5.73882 17.361 3.60004 18.7671 3.60004Z" fill="#FFA33C"/>
<path d="M11.5332 3.60004C12.9393 3.60004 14.0791 5.7391 14.0791 7.55122C14.0791 9.36335 12.9393 10.8328 11.5332 10.8328C10.1271 10.8328 8.9873 9.36362 8.9873 7.55122C8.9873 5.73882 10.1271 3.60004 11.5332 3.60004Z" fill="#FFA33C"/>
<path d="M3.90857 13.158C3.3115 11.663 3.57294 9.51254 4.7649 9.03641C5.95686 8.56028 7.62794 9.93867 8.22501 11.4336C8.82207 12.9286 8.33996 14.5266 7.148 15.0027C5.95604 15.4789 4.50563 14.653 3.90857 13.158Z" fill="#FFA33C"/>
<path d="M26.3916 13.158C25.7945 14.653 24.3441 15.4789 23.1522 15.0027C21.9602 14.5266 21.4778 12.9286 22.0752 11.4336C22.6722 9.93867 24.3433 8.56028 25.5353 9.03641C26.7272 9.51254 26.9887 11.663 26.3916 13.158Z" fill="#FFA33C"/>
<path d="M24.2582 21.4159C23.985 20.1916 23.3342 19.0874 22.6143 18.0639C20.9274 15.6664 18.2255 13.2455 15.1497 13.2455C12.0866 13.2455 9.37253 15.6659 7.68515 18.0639C6.96497 19.0874 6.31409 20.1913 6.04124 21.4159C5.76812 22.6405 5.91759 24.0096 6.67608 25.0043C7.43458 25.9989 8.8714 26.4954 9.99487 25.9571C10.6629 25.6369 11.2034 24.9915 11.9404 24.9293C12.6169 24.8722 13.2147 25.3279 13.7792 25.7089C14.1871 25.9842 14.6787 26.2348 15.1497 26.2381C15.6207 26.2348 16.1123 25.9842 16.5202 25.7089C17.0844 25.3279 17.6823 24.8725 18.359 24.9293C19.096 24.9912 19.6365 25.6369 20.3045 25.9571C21.428 26.4954 22.8648 25.9989 23.6233 25.0043C24.3818 24.0096 24.5313 22.6405 24.2582 21.4159ZM17.829 19.941C17.482 20.575 16.9344 21.1338 16.4718 21.5683C16.2232 21.8021 15.962 22.0206 15.69 22.2227C15.6894 22.223 15.6889 22.2236 15.6883 22.2238C15.3687 22.4592 14.9307 22.4592 14.6111 22.2238C14.6105 22.2233 14.61 22.223 14.6094 22.2227C14.3374 22.0208 14.0762 21.8021 13.8276 21.5683C13.365 21.1338 12.8174 20.575 12.4704 19.941C12.1837 19.4173 12.0339 18.842 12.1823 18.2425C12.3244 17.668 12.778 17.1633 13.334 17.0926C13.977 17.0111 14.7255 17.4636 15.1497 17.9832C15.5737 17.4636 16.3224 17.0111 16.9654 17.0926C17.5214 17.163 17.975 17.668 18.1171 18.2425C18.2655 18.842 18.1157 19.4173 17.829 19.941Z" fill="#FFA33C"/>
</g>
<defs>
<clipPath id="clip0_114_348">
<rect width="23.1" height="22.6377" fill="white" transform="translate(3.6001 3.59998)"/>
</clipPath>
</defs>
</svg>
