<svg width="294" height="2" viewBox="0 0 294 2" fill="none" xmlns="http://www.w3.org/2000/svg">
<rect width="20" height="1" rx="0.5" transform="matrix(-1 0 0 1 20 0.5)" fill="#711DB0"/>
<rect width="20" height="1" rx="0.5" transform="matrix(-1 0 0 1 42 0.5)" fill="#711DB0"/>
<rect width="20" height="1" rx="0.5" transform="matrix(-1 0 0 1 64 0.5)" fill="#711DB0"/>
<rect width="20" height="1" rx="0.5" transform="matrix(-1 0 0 1 86 0.5)" fill="#711DB0"/>
<rect width="20" height="1" rx="0.5" transform="matrix(-1 0 0 1 108 0.5)" fill="#711DB0"/>
<rect width="20" height="1" rx="0.5" transform="matrix(-1 0 0 1 130 0.5)" fill="#711DB0"/>
<rect width="20" height="1" rx="0.5" transform="matrix(-1 0 0 1 152 0.5)" fill="#711DB0"/>
<rect width="20" height="1" rx="0.5" transform="matrix(-1 0 0 1 174 0.5)" fill="#711DB0"/>
<rect width="20" height="1" rx="0.5" transform="matrix(-1 0 0 1 196 0.5)" fill="#711DB0"/>
<rect width="20" height="1" rx="0.5" transform="matrix(-1 0 0 1 218 0.5)" fill="#711DB0"/>
<rect width="20" height="1" rx="0.5" transform="matrix(-1 0 0 1 240 0.5)" fill="#711DB0"/>
<rect width="20" height="1" rx="0.5" transform="matrix(-1 0 0 1 262 0.5)" fill="#711DB0"/>
<rect width="18" height="1" rx="0.5" transform="matrix(-1 0 0 1 282 0.5)" fill="#711DB0"/>
<rect width="10" height="1" rx="0.5" transform="matrix(-1 0 0 1 294 0.5)" fill="#711DB0"/>
</svg>
